<svg width="100" height="100" viewBox="0 0 100 100" fill="none" xmlns="http://www.w3.org/2000/svg">
<g clip-path="url(#clip0_1_370)">
<path d="M96.4808 49.9979C98.0251 48.1995 99.1074 46.0514 99.6336 43.74C100.16 41.4286 100.114 39.0238 99.5006 36.734C98.887 34.4443 97.724 32.3388 96.1125 30.6003C94.501 28.8618 92.4897 27.5427 90.253 26.7575C90.6912 24.4277 90.5544 22.0262 89.8544 19.7613C89.1543 17.4964 87.9123 15.4365 86.2359 13.7603C84.5595 12.0841 82.4994 10.8423 80.2344 10.1425C77.9694 9.44279 75.5679 9.30627 73.2382 9.74482C72.4536 7.5076 71.1347 5.4957 69.3962 3.8838C67.6576 2.2719 65.5519 1.10873 63.2618 0.495265C60.9718 -0.118197 58.5665 -0.163404 56.255 0.36357C53.9435 0.890545 51.7956 1.97377 49.9977 3.5192C48.1993 1.97483 46.0512 0.892584 43.7398 0.366338C41.4284 -0.159908 39.0235 -0.114256 36.7338 0.499332C34.444 1.11292 32.3386 2.27591 30.6001 3.88742C28.8615 5.49893 27.5425 7.51028 26.7573 9.74699C24.4276 9.30914 22.0264 9.44627 19.7618 10.1465C17.4971 10.8467 15.4375 12.0888 13.7616 13.7652C12.0857 15.4415 10.8441 17.5014 10.1445 19.7662C9.44483 22.031 9.30832 24.4323 9.74676 26.7618C7.51005 27.547 5.49869 28.8661 3.88718 30.6046C2.27568 32.3431 1.11268 34.4486 0.49909 36.7384C-0.114498 39.0281 -0.160156 41.433 0.36609 43.7444C0.892336 46.0557 1.97461 48.2038 3.51897 50.0023C1.97414 51.8006 0.891533 53.9489 0.365137 56.2605C-0.161258 58.5721 -0.11556 60.9773 0.498296 63.2672C1.11215 65.5572 2.2756 67.6627 3.88766 69.4011C5.49972 71.1395 7.5117 72.4582 9.74893 73.2427C9.31011 75.5723 9.44647 77.9737 10.1462 80.2387C10.8459 82.5036 12.0878 84.5635 13.7642 86.2396C15.4405 87.9157 17.5006 89.1574 19.7656 89.8568C22.0306 90.5562 24.4321 90.6923 26.7616 90.2532C27.5468 92.4899 28.8659 94.5013 30.6044 96.1128C32.3429 97.7243 34.4484 98.8873 36.7381 99.5008C39.0279 100.114 41.4327 100.16 43.7441 99.6338C46.0555 99.1076 48.2036 98.0253 50.002 96.481C51.8004 98.0258 53.9487 99.1084 56.2603 99.6348C58.5719 100.161 60.977 100.115 63.267 99.5016C65.557 98.8878 67.6625 97.7243 69.4009 96.1123C71.1393 94.5002 72.458 92.4882 73.2425 90.251C75.5721 90.6897 77.9736 90.5533 80.2386 89.8535C82.5035 89.1538 84.5635 87.9119 86.2398 86.2357C87.916 84.5594 89.1579 82.4994 89.8577 80.2345C90.5574 77.9695 90.6938 75.568 90.2551 73.2384C92.492 72.4534 94.5035 71.1343 96.1151 69.3957C97.7267 67.6571 98.8897 65.5515 99.5031 63.2616C100.117 60.9717 100.162 58.5667 99.6351 56.2553C99.1085 53.944 98.0257 51.796 96.4808 49.9979Z" fill="#18C07A"/>
<path d="M41.0245 69.0843L27.1301 55.1985C26.6028 54.6703 26.3066 53.9545 26.3066 53.2082C26.3066 52.4618 26.6028 51.746 27.1301 51.2178L28.8182 49.5276C29.3463 49.0003 30.0621 48.7041 30.8085 48.7041C31.5548 48.7041 32.2707 49.0003 32.7988 49.5276L42.8989 59.6212L66.6855 34.3439C67.1973 33.8008 67.9037 33.483 68.6496 33.4602C69.3955 33.4375 70.12 33.7116 70.664 34.2225L72.3975 35.8585C72.9413 36.3705 73.2595 37.0773 73.2822 37.8238C73.305 38.5702 73.0304 39.2951 72.5189 39.8392L45.0724 69.0214C44.814 69.2968 44.5028 69.5175 44.1574 69.6702C43.812 69.823 43.4394 69.9047 43.0618 69.9106C42.6842 69.9164 42.3092 69.8463 41.9592 69.7044C41.6092 69.5624 41.2914 69.3515 41.0245 69.0843Z" fill="white"/>
</g>
<defs>
<clipPath id="clip0_1_370">
<rect width="100" height="100" fill="white"/>
</clipPath>
</defs>
</svg>
